<?xml version="1.0" encoding="utf-8"?>
<!-- Generator: Adobe Illustrator 16.0.0, SVG Export Plug-In . SVG Version: 6.00 Build 0)  -->
<!DOCTYPE svg PUBLIC "-//W3C//DTD SVG 1.1//EN" "http://www.w3.org/Graphics/SVG/1.1/DTD/svg11.dtd">
<svg version="1.1" id="Layer_1" xmlns="http://www.w3.org/2000/svg" xmlns:xlink="http://www.w3.org/1999/xlink" x="0px" y="0px"
	 width="960px" height="560px" viewBox="0 0 960 560" enable-background="new 0 0 960 560" xml:space="preserve">
<linearGradient id="SVGID_1_" gradientUnits="userSpaceOnUse" x1="482.2529" y1="554.6611" x2="482.2529" y2="-4.5042">
	<stop  offset="0" style="stop-color:#FFFFFF"/>
	<stop  offset="0.0529" style="stop-color:#F6FBFD"/>
	<stop  offset="0.1409" style="stop-color:#DCF0F9"/>
	<stop  offset="0.2532" style="stop-color:#B3DDF1"/>
	<stop  offset="0.3853" style="stop-color:#79C4E7"/>
	<stop  offset="0.5326" style="stop-color:#30A4DA"/>
	<stop  offset="0.5674" style="stop-color:#1E9CD7"/>
	<stop  offset="0.8652" style="stop-color:#0075BE"/>
	<stop  offset="0.9944" style="stop-color:#005B97"/>
</linearGradient>
<path fill="url(#SVGID_1_)" d="M5,0h480c0,0-17,146.381,158,103.343c24.933-6.132,50.933-11.494,76.604-13.017
	c14.271-0.847,29.654-0.78,43.265,4.188c7.414,2.706,15.581,9.216,19.193,16.253c3.846,7.494,3.51,16.233,1.838,24.268
	c-2.087,10.027-5.875,19.641-7.485,29.771c-1.528,9.62-1.441,19.446,0.441,29.009c1.987,10.098,6.293,20.13,13.516,27.593
	c14.81,15.304,38.08,17.318,57.308,10.208c14.041-5.192,26.56-14.2,37.869-23.862c4.138-3.536,8.182-7.174,12.202-10.843
	c2.087-1.904,4.21-3.782,6.249-5.739c0,0,68-78.322,61,12.76C958,295.013,965.506,561,965.506,561H485L4.5,560.001l-5.5,0.502V0"/>
<linearGradient id="SVGID_2_" gradientUnits="userSpaceOnUse" x1="1012.333" y1="257" x2="1012.333" y2="257">
	<stop  offset="0" style="stop-color:#7FFFCB"/>
	<stop  offset="0.081" style="stop-color:#76FFCC"/>
	<stop  offset="0.2158" style="stop-color:#5CFFD0"/>
	<stop  offset="0.3876" style="stop-color:#33FFD6"/>
	<stop  offset="0.5674" style="stop-color:#00FFDE"/>
	<stop  offset="0.8652" style="stop-color:#0075BE"/>
	<stop  offset="0.9944" style="stop-color:#005B97"/>
</linearGradient>
<path fill="url(#SVGID_2_)" stroke="#000000" stroke-miterlimit="10" d="M1012.333,257"/>
</svg>
