<?xml version="1.0" encoding="utf-8"?>
<!-- Generator: Adobe Illustrator 16.0.0, SVG Export Plug-In . SVG Version: 6.00 Build 0)  -->
<!DOCTYPE svg PUBLIC "-//W3C//DTD SVG 1.1//EN" "http://www.w3.org/Graphics/SVG/1.1/DTD/svg11.dtd">
<svg version="1.1" id="Bulb" xmlns="http://www.w3.org/2000/svg" xmlns:xlink="http://www.w3.org/1999/xlink" x="0px" y="0px"
	 width="198.101px" height="382.91px" viewBox="0 0 198.101 382.91" enable-background="new 0 0 198.101 382.91"
	 xml:space="preserve">
<rect fill="none" width="198.101" height="382.91"/>
<g>
	<path fill="#F05A2A" d="M108.14,379.112c9.222-23.125,30.058-52.318,29.725-65.438c-0.332-13.119-15.505-31.371-32.168-30.949
		C89.04,283.147,74.8,301.917,75.14,315.264C75.479,328.606,108.14,379.112,108.14,379.112z"/>
	<path fill="#F8EC3A" d="M107.72,362.461c7.535-18.898,24.566-42.756,24.293-53.479c-0.273-10.725-12.67-25.637-26.288-25.293
		s-25.253,15.686-24.974,26.59C81.024,321.184,107.72,362.461,107.72,362.461z"/>
	<path fill="#FFFFFF" d="M107.258,344.278c5.806-14.563,18.927-32.947,18.721-41.209c-0.21-8.262-9.765-19.754-20.259-19.492
		c-10.492,0.268-19.457,12.09-19.244,20.492C86.69,312.471,107.258,344.278,107.258,344.278z"/>
	<path fill="#F05A2A" d="M80.62,352.551c9.354-13.658,27.125-29.572,28.82-38.133c1.694-8.561-5.49-22.615-16.365-24.77
		c-10.873-2.152-22.844,7.955-24.572,16.662C66.782,315.022,80.62,352.551,80.62,352.551z"/>
	<path fill="#F8EC3A" d="M82.772,341.686c7.641-11.166,22.17-24.168,23.555-31.164c1.385-6.998-4.49-18.482-13.377-20.242
		c-8.887-1.762-18.669,6.5-20.078,13.615C71.458,311.014,82.772,341.686,82.772,341.686z"/>
	<path fill="#FFFFFF" d="M85.121,329.819c5.888-8.605,17.084-18.625,18.15-24.014c1.068-5.393-3.458-14.242-10.306-15.6
		c-6.849-1.357-14.388,5.012-15.476,10.496C76.407,306.184,85.121,329.819,85.121,329.819z"/>
	<path fill="#F05A2A" d="M114.276,324.379c-0.052-10.52,3.484-25.254,1.275-30.338c-2.208-5.082-11.041-9.826-17.498-7.023
		c-6.459,2.803-9.064,12.412-6.817,17.582C93.485,309.772,114.276,324.379,114.276,324.379z"/>
	<path fill="#F8EC3A" d="M111.473,317.926c-0.038-8.596,2.847-20.639,1.042-24.793c-1.805-4.158-9.023-8.035-14.303-5.74
		c-5.273,2.289-7.4,10.143-5.566,14.371C94.481,305.991,111.473,317.926,111.473,317.926z"/>
	<path fill="#FFFFFF" d="M108.413,310.875c-0.029-6.621,2.196-15.9,0.804-19.104c-1.39-3.205-6.956-6.189-11.023-4.422
		c-4.065,1.766-5.706,7.816-4.29,11.074C95.32,301.68,108.413,310.875,108.413,310.875z"/>
	<path fill="#E8AF2E" d="M188.396,100.432c-46.504,61.598-63.638,8.378-89.344,8.564c-13.463,0.101-23.25,55.479-89.348-8.564
		C9.702,51.09,49.706,11.085,99.052,11.085C148.394,11.085,188.396,51.09,188.396,100.432z"/>
	<path fill="#E8AF2E" d="M9.691,100.432c9.795,55.74,36.719,62.562,51.404,120.828c31.886,21.225,29.438,16.324,80.783,4.184
		c7.336-53.626,46.504-85.97,46.504-125.012C190.829,42.086,17.039,53.52,9.691,100.432z"/>
	<g>
		<path fill="none" stroke="#403F41" stroke-width="4.8956" stroke-linecap="round" stroke-miterlimit="10" d="M56.819,117.41
			c0,0,16.35,38.879,21.289,53.3c4.94,14.423,5.084,48.86,5.084,48.86"/>
		<path fill="none" stroke="#403F41" stroke-width="4.8956" stroke-linecap="round" stroke-miterlimit="10" d="M140.753,117.411
			c0,0-16.343,38.878-21.286,53.3c-4.943,14.422-5.083,48.859-5.083,48.859"/>
	</g>
	<path fill="#A6A8AB" d="M70.796,248.221v27.574c0,8.479,5.501,15.352,12.291,15.35h36.862c6.774,0,12.276-6.871,12.276-15.35
		l-0.002-27.572L70.796,248.221z"/>
	<path fill="#221F1F" d="M55.493,214.403v44.707c0,8.479,6.871,15.354,15.343,15.354h61.349c8.47,0,15.344-6.875,15.344-15.354
		v-44.707H55.493z"/>
	<path fill="#FDE039" d="M70.796,27.495c22.048-16.27,61.383-2.434,75.953,8.154c20.254,14.712,35.205,47.202,32.869,68.208
		c-2.338,21.006-11.221,32.087-19.48,51.637c-2.938,6.951,10.043-21.186-5.737-59.119c-11.78-28.308-45.835-35.531-68.415-38.141
		C70.187,56.407,48.867,43.683,70.796,27.495z"/>
	<path fill="#403F41" d="M150.644,227.877c0,1.223-0.939,2.207-2.098,2.207H54.038c-1.156,0-2.097-0.984-2.097-2.205v-3.836
		c0-1.219,0.94-2.207,2.097-2.207h94.508c1.158,0,2.098,0.988,2.1,2.209L150.644,227.877z"/>
	<path fill="#403F41" d="M150.646,241.071c-0.002,1.221-0.941,2.211-2.1,2.211H54.038c-1.156,0-2.097-0.99-2.097-2.211v-3.834
		c0-1.219,0.94-2.207,2.097-2.207h94.508c1.158,0,2.098,0.988,2.098,2.207L150.646,241.071z"/>
	<path fill="#403F41" d="M150.862,254.268c0,1.217-0.938,2.207-2.098,2.207H54.258c-1.161,0.002-2.103-0.988-2.103-2.207v-3.834
		c0-1.221,0.941-2.211,2.103-2.213l94.507,0.002c1.16,0,2.098,0.99,2.1,2.211L150.862,254.268z"/>
	<g>
		<path fill="none" stroke="#403F41" stroke-width="4.084" stroke-linecap="round" stroke-miterlimit="10" d="M74.895,110.56
			c-0.031,0.005-0.062,0.008-0.094,0.012c-0.378,0.049-0.771,0.08-1.189,0.08c-0.28,0-0.547-0.014-0.81-0.035
			c-0.085-0.007-0.165-0.02-0.249-0.029c-0.172-0.02-0.338-0.04-0.501-0.068c-0.095-0.016-0.186-0.037-0.276-0.057
			c-0.145-0.029-0.284-0.062-0.422-0.1c-0.09-0.024-0.18-0.052-0.266-0.079c-0.129-0.041-0.258-0.085-0.379-0.132
			c-0.082-0.031-0.164-0.064-0.242-0.099c-0.121-0.052-0.236-0.107-0.351-0.165c-0.072-0.037-0.144-0.072-0.212-0.111
			c-0.119-0.066-0.23-0.137-0.34-0.209c-0.055-0.037-0.111-0.071-0.165-0.109c-0.135-0.097-0.261-0.198-0.382-0.304
			c-0.023-0.018-0.047-0.034-0.065-0.052c-0.145-0.129-0.276-0.263-0.399-0.402c-0.018-0.019-0.031-0.039-0.048-0.058
			c-0.103-0.12-0.2-0.243-0.29-0.37c-0.026-0.037-0.049-0.076-0.074-0.113c-0.072-0.113-0.143-0.227-0.206-0.343
			c-0.024-0.043-0.044-0.086-0.065-0.13c-0.058-0.115-0.113-0.232-0.16-0.352c-0.019-0.043-0.033-0.086-0.049-0.129
			c-0.049-0.125-0.086-0.252-0.121-0.38c-0.008-0.037-0.02-0.073-0.029-0.11c-0.033-0.143-0.062-0.287-0.081-0.432
			c-0.005-0.023-0.009-0.046-0.013-0.068c-0.063-0.523-0.04-1.054,0.078-1.57c-0.49-2.172,0.639-4.604,3.4-5.567
			c-1.812-1.215-3.976-1.927-6.305-1.927c-6.344,0.002-11.481,5.239-11.479,11.69c0,6.462,5.134,11.698,11.479,11.7
			c5.846,0,10.662-4.454,11.382-10.211C75.634,110.429,75.277,110.507,74.895,110.56z"/>
		<path fill="none" stroke="#403F41" stroke-width="4.084" stroke-linecap="round" stroke-miterlimit="10" d="M109.045,93.152
			c0.275,0,0.539,0.012,0.794,0.033c-1.593-4.5-5.815-7.727-10.792-7.727c-5.469,0-10.024,3.902-11.182,9.109
			c0.974-0.566,2.232-0.916,3.785-0.916c4.293,0,6.361,2.67,6.219,5.25c0.143,2.58-1.926,5.25-6.219,5.25
			c-0.709,0-1.355-0.078-1.942-0.211c2.085,2.966,5.485,4.905,9.335,4.904c4.193,0.001,7.846-2.289,9.852-5.699
			C100.74,103.023,100.786,93.152,109.045,93.152z"/>
		<path fill="none" stroke="#403F41" stroke-width="4.084" stroke-linecap="round" stroke-miterlimit="10" d="M85.441,99.097
			c-0.227-2.278,1.29-4.676,4.541-5.29c-2.09-2.928-5.459-4.849-9.281-4.849c-6.123,0-11.109,4.875-11.46,11.008
			c1.028-0.797,2.483-1.314,4.37-1.314c4.71,0,6.75,3.216,6.117,6c0,0.003,0,0.006,0.002,0.008c0.575,2.562-1.109,5.477-5.053,5.926
			c0,0.001,0,0.001-0.002,0.001c1.752,1.107,3.809,1.759,6.025,1.759c5.143,0.001,9.498-3.444,10.961-8.193
			c-0.005,0-0.008,0-0.012,0C87.461,104.152,85.408,101.615,85.441,99.097z"/>
		<path fill="none" stroke="#403F41" stroke-width="4.084" stroke-linecap="round" stroke-miterlimit="10" d="M133.513,97.154
			c-3.452-0.001-6.54,1.557-8.645,4.009c0.097-0.003,0.187-0.011,0.284-0.011c8.312,0,8.312,10,0,10
			c-1.158,0-2.146-0.199-2.98-0.532c0.842,5.616,5.588,9.923,11.339,9.923c6.342,0,11.478-5.238,11.479-11.7
			C144.988,102.391,139.853,97.152,133.513,97.154z"/>
		<path fill="none" stroke="#403F41" stroke-width="4.084" stroke-linecap="round" stroke-miterlimit="10" d="M133.513,97.154
			c-3.452-0.001-6.54,1.557-8.645,4.009c0.097-0.003,0.187-0.011,0.284-0.011c8.312,0,8.312,10,0,10
			c-1.158,0-2.146-0.199-2.98-0.532c0.842,5.616,5.588,9.923,11.339,9.923c6.342,0,11.478-5.238,11.479-11.7
			C144.988,102.391,139.853,97.152,133.513,97.154z"/>
		<path fill="none" stroke="#403F41" stroke-width="4.084" stroke-linecap="round" stroke-miterlimit="10" d="M125.152,101.152
			c1.492,0,2.711,0.326,3.668,0.854c0.051-0.446,0.082-0.898,0.082-1.359c-0.001-6.451-5.137-11.69-11.476-11.688
			c-3.549-0.001-6.719,1.639-8.827,4.21c0.149-0.007,0.292-0.017,0.445-0.017c8.311,0,8.311,10,0,10
			c-1.132,0-2.104-0.19-2.928-0.512c0.93,5.511,5.632,9.706,11.308,9.706c2.012,0,3.903-0.532,5.548-1.46
			C116.924,109.306,117.646,101.152,125.152,101.152z"/>
		<path fill="none" stroke="#403F41" stroke-width="4.084" stroke-linecap="round" stroke-miterlimit="10" d="M133.513,97.154
			c-3.452-0.001-6.54,1.557-8.645,4.009c0.097-0.003,0.187-0.011,0.284-0.011c8.312,0,8.312,10,0,10
			c-1.158,0-2.146-0.199-2.98-0.532c0.842,5.616,5.588,9.923,11.339,9.923c6.342,0,11.478-5.238,11.479-11.7
			C144.988,102.391,139.853,97.152,133.513,97.154z"/>
		<path fill="none" stroke="#403F41" stroke-width="4.084" stroke-linecap="round" stroke-miterlimit="10" d="M133.513,97.154
			c-3.452-0.001-6.54,1.557-8.645,4.009c0.097-0.003,0.187-0.011,0.284-0.011c8.312,0,8.312,10,0,10
			c-1.158,0-2.146-0.199-2.98-0.532c0.842,5.616,5.588,9.923,11.339,9.923c6.342,0,11.478-5.238,11.479-11.7
			C144.988,102.391,139.853,97.152,133.513,97.154z"/>
		<path fill="none" stroke="#403F41" stroke-width="4.084" stroke-linecap="round" stroke-miterlimit="10" d="M133.513,97.154
			c-3.452-0.001-6.54,1.557-8.645,4.009c0.097-0.003,0.187-0.011,0.284-0.011c8.312,0,8.312,10,0,10
			c-1.158,0-2.146-0.199-2.98-0.532c0.842,5.616,5.588,9.923,11.339,9.923c6.342,0,11.478-5.238,11.479-11.7
			C144.988,102.391,139.853,97.152,133.513,97.154z"/>
		<path fill="none" stroke="#403F41" stroke-width="4.084" stroke-linecap="round" stroke-miterlimit="10" d="M133.513,97.154
			c-3.452-0.001-6.54,1.557-8.645,4.009c0.097-0.003,0.187-0.011,0.284-0.011c8.312,0,8.312,10,0,10
			c-1.158,0-2.146-0.199-2.98-0.532c0.842,5.616,5.588,9.923,11.339,9.923c6.342,0,11.478-5.238,11.479-11.7
			C144.988,102.391,139.853,97.152,133.513,97.154z"/>
		<path fill="none" stroke="#403F41" stroke-width="4.084" stroke-linecap="round" stroke-miterlimit="10" d="M133.513,97.154
			c-3.452-0.001-6.54,1.557-8.645,4.009c0.097-0.003,0.187-0.011,0.284-0.011c8.312,0,8.312,10,0,10
			c-1.158,0-2.146-0.199-2.98-0.532c0.842,5.616,5.588,9.923,11.339,9.923c6.342,0,11.478-5.238,11.479-11.7
			C144.988,102.391,139.853,97.152,133.513,97.154z"/>
		<path fill="none" stroke="#403F41" stroke-width="4.084" stroke-linecap="round" stroke-miterlimit="10" d="M133.513,97.154
			c-3.452-0.001-6.54,1.557-8.645,4.009c0.097-0.003,0.187-0.011,0.284-0.011c8.312,0,8.312,10,0,10
			c-1.158,0-2.146-0.199-2.98-0.532c0.842,5.616,5.588,9.923,11.339,9.923c6.342,0,11.478-5.238,11.479-11.7
			C144.988,102.391,139.853,97.152,133.513,97.154z"/>
		<path fill="none" stroke="#403F41" stroke-width="4.084" stroke-linecap="round" stroke-miterlimit="10" d="M133.513,97.154
			c-3.452-0.001-6.54,1.557-8.645,4.009c0.097-0.003,0.187-0.011,0.284-0.011c8.312,0,8.312,10,0,10
			c-1.158,0-2.146-0.199-2.98-0.532c0.842,5.616,5.588,9.923,11.339,9.923c6.342,0,11.478-5.238,11.479-11.7
			C144.988,102.391,139.853,97.152,133.513,97.154z"/>
		<path fill="none" stroke="#403F41" stroke-width="4.084" stroke-linecap="round" stroke-miterlimit="10" d="M133.513,97.154
			c-3.452-0.001-6.54,1.557-8.645,4.009c0.097-0.003,0.187-0.011,0.284-0.011c8.312,0,8.312,10,0,10
			c-1.158,0-2.146-0.199-2.98-0.532c0.842,5.616,5.588,9.923,11.339,9.923c6.342,0,11.478-5.238,11.479-11.7
			C144.988,102.391,139.853,97.152,133.513,97.154z"/>
		<path fill="none" stroke="#403F41" stroke-width="4.084" stroke-linecap="round" stroke-miterlimit="10" d="M133.513,97.154
			c-3.452-0.001-6.54,1.557-8.645,4.009c0.097-0.003,0.187-0.011,0.284-0.011c8.312,0,8.312,10,0,10
			c-1.158,0-2.146-0.199-2.98-0.532c0.842,5.616,5.588,9.923,11.339,9.923c6.342,0,11.478-5.238,11.479-11.7
			C144.988,102.391,139.853,97.152,133.513,97.154z"/>
		<path fill="none" stroke="#403F41" stroke-width="4.084" stroke-linecap="round" stroke-miterlimit="10" d="M133.513,97.154
			c-3.452-0.001-6.54,1.557-8.645,4.009c0.097-0.003,0.187-0.011,0.284-0.011c8.312,0,8.312,10,0,10
			c-1.158,0-2.146-0.199-2.98-0.532c0.842,5.616,5.588,9.923,11.339,9.923c6.342,0,11.478-5.238,11.479-11.7
			C144.988,102.391,139.853,97.152,133.513,97.154z"/>
		<path fill="none" stroke="#403F41" stroke-width="4.084" stroke-linecap="round" stroke-miterlimit="10" d="M133.513,97.154
			c-3.452-0.001-6.54,1.557-8.645,4.009c0.097-0.003,0.187-0.011,0.284-0.011c8.312,0,8.312,10,0,10
			c-1.158,0-2.146-0.199-2.98-0.532c0.842,5.616,5.588,9.923,11.339,9.923c6.342,0,11.478-5.238,11.479-11.7
			C144.988,102.391,139.853,97.152,133.513,97.154z"/>
		<path fill="none" stroke="#403F41" stroke-width="4.084" stroke-linecap="round" stroke-miterlimit="10" d="M133.513,97.154
			c-3.452-0.001-6.54,1.557-8.645,4.009c0.097-0.003,0.187-0.011,0.284-0.011c8.312,0,8.312,10,0,10
			c-1.158,0-2.146-0.199-2.98-0.532c0.842,5.616,5.588,9.923,11.339,9.923c6.342,0,11.478-5.238,11.479-11.7
			C144.988,102.391,139.853,97.152,133.513,97.154z"/>
		<path fill="none" stroke="#403F41" stroke-width="4.084" stroke-linecap="round" stroke-miterlimit="10" d="M133.513,97.154
			c-3.452-0.001-6.54,1.557-8.645,4.009c0.097-0.003,0.187-0.011,0.284-0.011c8.312,0,8.312,10,0,10
			c-1.158,0-2.146-0.199-2.98-0.532c0.842,5.616,5.588,9.923,11.339,9.923c6.342,0,11.478-5.238,11.479-11.7
			C144.988,102.391,139.853,97.152,133.513,97.154z"/>
		<path fill="none" stroke="#403F41" stroke-width="4.084" stroke-linecap="round" stroke-miterlimit="10" d="M133.513,97.154
			c-3.452-0.001-6.54,1.557-8.645,4.009c0.097-0.003,0.187-0.011,0.284-0.011c8.312,0,8.312,10,0,10
			c-1.158,0-2.146-0.199-2.98-0.532c0.842,5.616,5.588,9.923,11.339,9.923c6.342,0,11.478-5.238,11.479-11.7
			C144.988,102.391,139.853,97.152,133.513,97.154z"/>
		<path fill="none" stroke="#403F41" stroke-width="4.084" stroke-linecap="round" stroke-miterlimit="10" d="M133.513,97.154
			c-3.452-0.001-6.54,1.557-8.645,4.009c0.097-0.003,0.187-0.011,0.284-0.011c8.312,0,8.312,10,0,10
			c-1.158,0-2.146-0.199-2.98-0.532c0.842,5.616,5.588,9.923,11.339,9.923c6.342,0,11.478-5.238,11.479-11.7
			C144.988,102.391,139.853,97.152,133.513,97.154z"/>
		<path fill="none" stroke="#403F41" stroke-width="4.084" stroke-linecap="round" stroke-miterlimit="10" d="M133.513,97.154
			c-3.452-0.001-6.54,1.557-8.645,4.009c0.097-0.003,0.187-0.011,0.284-0.011c8.312,0,8.312,10,0,10
			c-1.158,0-2.146-0.199-2.98-0.532c0.842,5.616,5.588,9.923,11.339,9.923c6.342,0,11.478-5.238,11.479-11.7
			C144.988,102.391,139.853,97.152,133.513,97.154z"/>
		<path fill="none" stroke="#403F41" stroke-width="4.084" stroke-linecap="round" stroke-miterlimit="10" d="M133.513,97.154
			c-3.452-0.001-6.54,1.557-8.645,4.009c0.097-0.003,0.187-0.011,0.284-0.011c8.312,0,8.312,10,0,10
			c-1.158,0-2.146-0.199-2.98-0.532c0.842,5.616,5.588,9.923,11.339,9.923c6.342,0,11.478-5.238,11.479-11.7
			C144.988,102.391,139.853,97.152,133.513,97.154z"/>
		<path fill="none" stroke="#403F41" stroke-width="4.084" stroke-linecap="round" stroke-miterlimit="10" d="M133.513,97.154
			c-3.452-0.001-6.54,1.557-8.645,4.009c0.097-0.003,0.187-0.011,0.284-0.011c8.312,0,8.312,10,0,10
			c-1.158,0-2.146-0.199-2.98-0.532c0.842,5.616,5.588,9.923,11.339,9.923c6.342,0,11.478-5.238,11.479-11.7
			C144.988,102.391,139.853,97.152,133.513,97.154z"/>
		<path fill="none" stroke="#403F41" stroke-width="4.084" stroke-linecap="round" stroke-miterlimit="10" d="M133.513,97.154
			c-3.452-0.001-6.54,1.557-8.645,4.009c0.097-0.003,0.187-0.011,0.284-0.011c8.312,0,8.312,10,0,10
			c-1.158,0-2.146-0.199-2.98-0.532c0.842,5.616,5.588,9.923,11.339,9.923c6.342,0,11.478-5.238,11.479-11.7
			C144.988,102.391,139.853,97.152,133.513,97.154z"/>
		<path fill="none" stroke="#403F41" stroke-width="4.084" stroke-linecap="round" stroke-miterlimit="10" d="M133.513,97.154
			c-3.452-0.001-6.54,1.557-8.645,4.009c0.097-0.003,0.187-0.011,0.284-0.011c8.312,0,8.312,10,0,10
			c-1.158,0-2.146-0.199-2.98-0.532c0.842,5.616,5.588,9.923,11.339,9.923c6.342,0,11.478-5.238,11.479-11.7
			C144.988,102.391,139.853,97.152,133.513,97.154z"/>
		<path fill="none" stroke="#403F41" stroke-width="4.084" stroke-linecap="round" stroke-miterlimit="10" d="M133.513,97.154
			c-3.452-0.001-6.54,1.557-8.645,4.009c0.097-0.003,0.187-0.011,0.284-0.011c8.312,0,8.312,10,0,10
			c-1.158,0-2.146-0.199-2.98-0.532c0.842,5.616,5.588,9.923,11.339,9.923c6.342,0,11.478-5.238,11.479-11.7
			C144.988,102.391,139.853,97.152,133.513,97.154z"/>
		<path fill="none" stroke="#403F41" stroke-width="4.084" stroke-linecap="round" stroke-miterlimit="10" d="M133.513,97.154
			c-3.452-0.001-6.54,1.557-8.645,4.009c0.097-0.003,0.187-0.011,0.284-0.011c8.312,0,8.312,10,0,10
			c-1.158,0-2.146-0.199-2.98-0.532c0.842,5.616,5.588,9.923,11.339,9.923c6.342,0,11.478-5.238,11.479-11.7
			C144.988,102.391,139.853,97.152,133.513,97.154z"/>
	</g>
</g>
</svg>
