<?xml version="1.0" encoding="utf-8"?>
<!-- Generator: Adobe Illustrator 16.0.0, SVG Export Plug-In . SVG Version: 6.00 Build 0)  -->
<!DOCTYPE svg PUBLIC "-//W3C//DTD SVG 1.1//EN" "http://www.w3.org/Graphics/SVG/1.1/DTD/svg11.dtd">
<svg version="1.1" id="Layer_1" xmlns="http://www.w3.org/2000/svg" xmlns:xlink="http://www.w3.org/1999/xlink" x="0px" y="0px"
	 width="145.333px" height="302px" viewBox="0 0 145.333 302" enable-background="new 0 0 145.333 302" xml:space="preserve">
<g>
	<g>
		<path fill="#E8CD66" d="M109.667,100.037v7.992c0,0-24.586,6.195-31.244,5.684c-4.098-0.314-10.514-14.533-14.835-25.41
			c-2.697-6.786-4.581-12.271-4.581-12.271l-4.952-29.07c0,0,14.985,1.069,17.439,5.777c2.454,4.708,10.633,44.201,12.542,47.298
			C84.037,100.037,104.758,99.521,109.667,100.037z"/>
		<path opacity="0.2" fill="#CF852B" d="M109.667,107.091v0.938c0,0-24.586,6.195-31.244,5.684
			c-4.098-0.314-10.514-14.533-14.835-25.41c-2.034-8.729-2.596-15.865,0.818-16.316c9.088-1.203,15.452,37,16.359,37.876
			c0.908,0.879,14.178-1.223,22.904-3.285C106.54,105.898,108.426,106.279,109.667,107.091z"/>
		<path fill="#CA8F96" d="M49.759,36.88c0,0,1.777,13.793,1.978,15.743c0,0-12.682,7.293-16.566,5.38
			c-2.372-1.168-2.968-9.728-2.968-9.728s3.814-6.797,3.047-16.891L49.759,36.88z"/>
		<path fill="#DCABB0" d="M51.227,37.954c0,0-16.891,0.73-17.209-9.234c-0.319-9.966-2.714-16.582,8.058-17.471
			c10.771-0.888,12.989,2.855,13.95,6.156C56.986,20.707,55.613,37.507,51.227,37.954z"/>
		<path fill="#6A4A00" d="M34.018,28.72c0,0,1.263-13.298,16.31-12.821c9.777,0.311,9.565-10.135,9.565-10.135
			s-12.518-1.636-20.741,0.65C22.694,10.991,32.5,26.609,34.018,28.72z"/>
		<path fill="#3D3D3F" d="M57.183,286.873l2.645,8.051h26.239C86.067,294.923,79.354,284.064,57.183,286.873z"/>
		<path fill="#3D3D3F" d="M10.571,287.048l2.342,8.051h23.234C36.147,295.099,30.204,284.24,10.571,287.048z"/>
		<path fill="#2F2C60" d="M65.105,136.328l-45.056,0.293c0,0,16.134,80.35,35.823,150.926l24.561-0.107L65.105,136.328z"/>
		<path fill="#373482" d="M14.892,134.951c0,0-13.107,61.445-5.617,153.252h20.338l12.74-121.02l0,0
			c0.372-3.531,6.549-30.201,6.549-30.201L14.892,134.951z"/>
		<g>
			<path fill="#272253" d="M15.952,148.814c11.515,0,16.519-7.908,16.568-7.99l-0.531-0.293c-0.049,0.078-5.017,8.473-16.455,8.279
				l0,0C15.673,148.812,15.814,148.814,15.952,148.814z"/>
		</g>
		<g>
			<g>
				<path fill="#2F2C60" d="M14.059,271.755c1.844-11.514,3.369-25.18,4.209-39.438c0.128-2.18,0.246-4.422,0.351-6.666
					c0.115-2.475,0.215-4.98,0.299-7.449c0.028-0.848-0.218-1.828-0.456-2.775c-0.222-0.883-0.45-1.793-0.431-2.525
					c0.246-9.385,0.043-17.979-0.136-25.563c-0.047-1.988-0.093-3.936-0.13-5.844c-0.335-17.242-0.462-27.012-0.458-27.107l0,0
					c-0.005,0.096-0.458,9.816-0.122,27.082c0.037,1.91,0.083,3.857,0.13,5.848c0.179,7.574,0.381,16.162,0.136,25.531
					c-0.021,0.816,0.219,1.771,0.45,2.695c0.228,0.904,0.462,1.84,0.437,2.6c-0.083,2.467-0.183,4.969-0.298,7.441
					c-0.104,2.24-0.222,4.48-0.35,6.658c-0.838,14.238-1.956,28.025-3.796,39.52L14.059,271.755z"/>
			</g>
		</g>
		<path fill="#DCABB0" d="M105.733,106.423l1.773-0.723c0,0,5.271,7.314,14.77,3.641c0,0,3.771-1.775,1.334-3.643
			c-2.439-1.867-1.799-0.861-5.174-3.557c-3.373-2.695-7.809-3.877-10.729-2.719l-3.236,1.309L105.733,106.423z"/>
		<path fill="#E8CD66" d="M67.496,132.99c-0.082,2.279-0.947,3.906-3.357,3.877c0,0-17.386,0.545-23.113,0.469
			c-6.32-0.084-25.076-1.109-25.076-1.109l-1.036-0.014c-2.228-0.031-3.803-2.07-3.16-4.088c1.827-5.74,4.502-16.877,2.566-28.57
			c-1.772-10.709-2.279-20.247-1.802-28.243c0.755-12.641,3.97-21.44,8.537-24.964c0,0,6.044-2.137,13.212-3.291
			c1.729,2.551,4.761,5.573,9.418,5.57c4.981-0.003,7.452-3.263,8.61-5.746c5.671,0.223,10.497,0.816,12.657,2.068
			c4.442,2.574,6.187,30.444,3.685,59.863C67.811,118.515,67.663,128.318,67.496,132.99z"/>
		<path opacity="0.2" fill="#CF852B" d="M33.891,45.423c0,0,4.409,6,9.478,6.336l-4.989,6.974c0,0-11.146-4.974-10.461-10.325
			C27.918,48.407,32.265,45.535,33.891,45.423z"/>
		<path opacity="0.2" fill="#CF852B" d="M50.671,45.293c0,0-2.992,6.784-7.659,6.432l4.706,7.008c0,0,9.313-5.319,9.594-10.342
			C57.313,48.391,52.297,45.405,50.671,45.293z"/>
		<path fill="#3D18B2" d="M39.589,51.899h6.732c0,0,0.814,0.257,0.543,1.233s-2.768,3.443-3.61,3.495
			C42.413,56.679,37.581,53.544,39.589,51.899z"/>
		<path fill="#E8CD66" d="M50.737,44.525c0,0-2.299,6.897-7.368,7.233L48.2,57.87c0,0,8.97-5.225,9.25-10.246
			C57.45,47.624,52.362,44.638,50.737,44.525z"/>
		<path fill="#E8CD66" d="M33.68,44.694c0,0,4.619,6.729,9.688,7.064l-4.808,6.244c0,0-10.362-4.573-10.642-9.596
			C27.918,48.407,32.054,44.807,33.68,44.694z"/>
		<path fill="#531BDD" d="M42.081,56.224c0,0,2.165,15.41,2.165,19.808c0,18.494-3.037,47.216-3.037,47.216s-0.307,3.25,2.155,5.76
			c2.463,2.51,5.006,4.203,5.006,4.203s3.419-2.883,4.653-8.139c0.821-3.496,1.93-25.129-2.614-48.266
			c-1.894-9.644-5.953-20.919-5.953-20.919S42.618,55.653,42.081,56.224z"/>
		<g>
			<polygon fill="#A9B1CC" points="97.428,74.451 140.834,74.451 131.846,104.392 88.807,104.392 			"/>
			<polygon fill="#CDD2EA" points="98.096,74.451 141.5,74.451 132.514,104.392 89.474,104.392 			"/>
			<rect x="76.549" y="104.392" fill="#A9B1CC" width="55.965" height="1.033"/>
			<path fill="#DCE1F1" d="M111.231,91.933c0-3.115,2.24-6.271,5.002-7.049c2.76-0.776,4.998,1.12,4.998,4.236
				c0,3.115-2.238,6.27-4.998,7.045C113.471,96.945,111.231,95.048,111.231,91.933z"/>
		</g>
		<path opacity="0.2" fill="#CF852B" d="M31.141,124.644c-4.035,6.682-9.974,9.977-15.192,11.582l-1.036-0.014
			c-2.228-0.031-3.803-2.07-3.16-4.088c1.827-5.74,4.502-16.877,2.566-28.57c-1.772-10.709-2.279-20.247-1.802-28.243
			c5.69-3.547,14.333-7.481,18.625-2.106C37.868,81.625,39.866,110.189,31.141,124.644z"/>
		<path fill="#DCABB0" d="M66.042,96.31l7.034,0.072c0,0,8.247-4.175,14.873,3.24c0,0,2.477,3.225-0.597,3.813
			c-3.074,0.588-2.017-0.021-6.324,0.889c-4.308,0.912-8.819,0.02-10.841-2.287l-2.23-2.576L66.042,96.31z"/>
		<path fill="#E8CD66" d="M27.918,48.407c0,0-14.794,2.226-19.817,7.41c-3.953,4.081,3.301,46.336,13.839,50.243
			c11.631,4.314,48.246-4.023,48.246-4.023l2.889-5.654c0,0-29.707-4.48-39.504-4.48L27.918,48.407z"/>
	</g>
	<text transform="matrix(1 0 0 1 112.2954 90.3389)"><tspan x="0" y="0" font-family="'ArialMT'" font-size="2">Incubate</tspan><tspan x="0" y="2.4" font-family="'ArialMT'" font-size="2">    Ind</tspan></text>
</g>
</svg>
