<?xml version="1.0" encoding="utf-8"?>
<!-- Generator: Adobe Illustrator 16.0.0, SVG Export Plug-In . SVG Version: 6.00 Build 0)  -->
<!DOCTYPE svg PUBLIC "-//W3C//DTD SVG 1.1//EN" "http://www.w3.org/Graphics/SVG/1.1/DTD/svg11.dtd">
<svg version="1.1" id="Layer_1" xmlns="http://www.w3.org/2000/svg" xmlns:xlink="http://www.w3.org/1999/xlink" x="0px" y="0px"
	 width="960px" height="560px" viewBox="0 0 960 560" enable-background="new 0 0 960 560" xml:space="preserve">
<g>
	<g>
		<g>
			
				<radialGradient id="SVGID_1_" cx="342.834" cy="514.2266" r="148.7842" gradientTransform="matrix(0.1978 -0.0254 0.0235 0.214 33.182 20.6604)" gradientUnits="userSpaceOnUse">
				<stop  offset="0.1424" style="stop-color:#FFFFFF"/>
				<stop  offset="0.1536" style="stop-color:#F8F8F8"/>
				<stop  offset="0.2582" style="stop-color:#B7B7B7"/>
				<stop  offset="0.3613" style="stop-color:#7F7F7F"/>
				<stop  offset="0.4604" style="stop-color:#525252"/>
				<stop  offset="0.5546" style="stop-color:#2E2E2E"/>
				<stop  offset="0.6427" style="stop-color:#151515"/>
				<stop  offset="0.7224" style="stop-color:#050505"/>
				<stop  offset="0.7864" style="stop-color:#000000"/>
			</radialGradient>
			<path fill="url(#SVGID_1_)" d="M142.515,118.207c1.928,17.583-9.687,33.526-25.943,35.611
				c-16.257,2.086-30.999-10.476-32.927-28.059c-1.928-17.582,9.687-33.525,25.944-35.611
				C125.844,88.063,140.586,100.625,142.515,118.207z"/>
		</g>
		<g>
			<g>
				<g>
					<image overflow="visible" width="36" height="8" xlink:href="37FDA582.png"  transform="matrix(1 0 0 1 113 119)">
					</image>
				</g>
				<g>
					
						<image overflow="visible" opacity="0.3" width="36" height="12" xlink:href="37FDA586.png"  transform="matrix(1 0 0 1 106 117)">
					</image>
					
						<image overflow="visible" opacity="0.3" width="39" height="12" xlink:href="37FDA581.png"  transform="matrix(1 0 0 1 75 117)">
					</image>
				</g>
				<g>
					
						<image overflow="visible" opacity="0.3" width="21" height="22" xlink:href="37FDA583.png"  transform="matrix(1 0 0 1 112 102)">
					</image>
					
						<image overflow="visible" opacity="0.3" width="21" height="22" xlink:href="37FDA580.png"  transform="matrix(1 0 0 1 94 122)">
					</image>
				</g>
				<g>
					
						<image overflow="visible" opacity="0.33" width="18" height="34" xlink:href="37FDA58E.png"  transform="matrix(1 0 0 1 111 122)">
					</image>
					
						<image overflow="visible" opacity="0.35" width="17" height="33" xlink:href="37FDA585.png"  transform="matrix(1 0 0 1 99 91)">
					</image>
				</g>
			</g>
		</g>
		
			<radialGradient id="SVGID_2_" cx="581.4785" cy="517.8164" r="0" gradientTransform="matrix(0.2006 0 0 0.217 26.0518 10.8634)" gradientUnits="userSpaceOnUse">
			<stop  offset="0.1424" style="stop-color:#FFFFFF"/>
			<stop  offset="0.1536" style="stop-color:#F8F8F8"/>
			<stop  offset="0.2582" style="stop-color:#B7B7B7"/>
			<stop  offset="0.3613" style="stop-color:#7F7F7F"/>
			<stop  offset="0.4604" style="stop-color:#525252"/>
			<stop  offset="0.5546" style="stop-color:#2E2E2E"/>
			<stop  offset="0.6427" style="stop-color:#151515"/>
			<stop  offset="0.7224" style="stop-color:#050505"/>
			<stop  offset="0.7864" style="stop-color:#000000"/>
		</radialGradient>
		<path fill="url(#SVGID_2_)" d="M142.724,123.232"/>
		
			<radialGradient id="SVGID_3_" cx="581.4785" cy="517.8164" r="0" gradientTransform="matrix(0.2006 0 0 0.217 26.0518 10.8634)" gradientUnits="userSpaceOnUse">
			<stop  offset="0.1424" style="stop-color:#FFFFFF"/>
			<stop  offset="0.1536" style="stop-color:#F8F8F8"/>
			<stop  offset="0.2582" style="stop-color:#B7B7B7"/>
			<stop  offset="0.3613" style="stop-color:#7F7F7F"/>
			<stop  offset="0.4604" style="stop-color:#525252"/>
			<stop  offset="0.5546" style="stop-color:#2E2E2E"/>
			<stop  offset="0.6427" style="stop-color:#151515"/>
			<stop  offset="0.7224" style="stop-color:#050505"/>
			<stop  offset="0.7864" style="stop-color:#000000"/>
		</radialGradient>
		<path fill="url(#SVGID_3_)" d="M142.724,123.232"/>
		
			<radialGradient id="SVGID_4_" cx="604.3965" cy="522.1133" r="0" gradientTransform="matrix(0.2006 0 0 0.217 26.0518 10.8634)" gradientUnits="userSpaceOnUse">
			<stop  offset="0.1424" style="stop-color:#FFFFFF"/>
			<stop  offset="0.1536" style="stop-color:#F8F8F8"/>
			<stop  offset="0.2582" style="stop-color:#B7B7B7"/>
			<stop  offset="0.3613" style="stop-color:#7F7F7F"/>
			<stop  offset="0.4604" style="stop-color:#525252"/>
			<stop  offset="0.5546" style="stop-color:#2E2E2E"/>
			<stop  offset="0.6427" style="stop-color:#151515"/>
			<stop  offset="0.7224" style="stop-color:#050505"/>
			<stop  offset="0.7864" style="stop-color:#000000"/>
		</radialGradient>
		<path fill="url(#SVGID_4_)" d="M147.322,124.165"/>
	</g>
	<g>
		<g>
			<g>
				
					<radialGradient id="SVGID_5_" cx="2867.2773" cy="879.2109" r="148.7832" gradientTransform="matrix(0.1978 -0.0254 0.0235 0.214 33.182 20.6604)" gradientUnits="userSpaceOnUse">
					<stop  offset="0.1424" style="stop-color:#FFFFFF"/>
					<stop  offset="0.1536" style="stop-color:#F8F8F8"/>
					<stop  offset="0.2582" style="stop-color:#B7B7B7"/>
					<stop  offset="0.3613" style="stop-color:#7F7F7F"/>
					<stop  offset="0.4604" style="stop-color:#525252"/>
					<stop  offset="0.5546" style="stop-color:#2E2E2E"/>
					<stop  offset="0.6427" style="stop-color:#151515"/>
					<stop  offset="0.7224" style="stop-color:#050505"/>
					<stop  offset="0.7864" style="stop-color:#000000"/>
				</radialGradient>
				<path fill="url(#SVGID_5_)" d="M650.515,132.207c1.929,17.583-9.687,33.526-25.943,35.611
					c-16.257,2.086-30.999-10.476-32.927-28.059c-1.929-17.582,9.687-33.525,25.943-35.611
					C633.844,102.063,648.586,114.625,650.515,132.207z"/>
			</g>
			<g>
				<g>
					<g>
						<image overflow="visible" width="36" height="8" xlink:href="37FDA587.png"  transform="matrix(1 0 0 1 621 133)">
						</image>
					</g>
					<g>
						
							<image overflow="visible" opacity="0.3" width="36" height="12" xlink:href="37FDA584.png"  transform="matrix(1 0 0 1 614 131)">
						</image>
						
							<image overflow="visible" opacity="0.3" width="39" height="12" xlink:href="17A8EC15.png"  transform="matrix(1 0 0 1 583 131)">
						</image>
					</g>
					<g>
						
							<image overflow="visible" opacity="0.3" width="21" height="22" xlink:href="17A8EC2B.png"  transform="matrix(1 0 0 1 620 116)">
						</image>
						
							<image overflow="visible" opacity="0.3" width="21" height="22" xlink:href="17A8EC2D.png"  transform="matrix(1 0 0 1 602 136)">
						</image>
					</g>
					<g>
						
							<image overflow="visible" opacity="0.33" width="18" height="34" xlink:href="17A8EC2F.png"  transform="matrix(1 0 0 1 619 136)">
						</image>
						
							<image overflow="visible" opacity="0.35" width="17" height="33" xlink:href="17A8EC2C.png"  transform="matrix(1 0 0 1 607 105)">
						</image>
					</g>
				</g>
			</g>
			
				<radialGradient id="SVGID_6_" cx="3113.2793" cy="582.3281" r="0" gradientTransform="matrix(0.2006 0 0 0.217 26.0518 10.8634)" gradientUnits="userSpaceOnUse">
				<stop  offset="0.1424" style="stop-color:#FFFFFF"/>
				<stop  offset="0.1536" style="stop-color:#F8F8F8"/>
				<stop  offset="0.2582" style="stop-color:#B7B7B7"/>
				<stop  offset="0.3613" style="stop-color:#7F7F7F"/>
				<stop  offset="0.4604" style="stop-color:#525252"/>
				<stop  offset="0.5546" style="stop-color:#2E2E2E"/>
				<stop  offset="0.6427" style="stop-color:#151515"/>
				<stop  offset="0.7224" style="stop-color:#050505"/>
				<stop  offset="0.7864" style="stop-color:#000000"/>
			</radialGradient>
			<path fill="url(#SVGID_6_)" d="M650.724,137.232"/>
			
				<radialGradient id="SVGID_7_" cx="3113.2793" cy="582.3281" r="0" gradientTransform="matrix(0.2006 0 0 0.217 26.0518 10.8634)" gradientUnits="userSpaceOnUse">
				<stop  offset="0.1424" style="stop-color:#FFFFFF"/>
				<stop  offset="0.1536" style="stop-color:#F8F8F8"/>
				<stop  offset="0.2582" style="stop-color:#B7B7B7"/>
				<stop  offset="0.3613" style="stop-color:#7F7F7F"/>
				<stop  offset="0.4604" style="stop-color:#525252"/>
				<stop  offset="0.5546" style="stop-color:#2E2E2E"/>
				<stop  offset="0.6427" style="stop-color:#151515"/>
				<stop  offset="0.7224" style="stop-color:#050505"/>
				<stop  offset="0.7864" style="stop-color:#000000"/>
			</radialGradient>
			<path fill="url(#SVGID_7_)" d="M650.724,137.232"/>
			
				<radialGradient id="SVGID_8_" cx="3136.1973" cy="586.6289" r="0" gradientTransform="matrix(0.2006 0 0 0.217 26.0518 10.8634)" gradientUnits="userSpaceOnUse">
				<stop  offset="0.1424" style="stop-color:#FFFFFF"/>
				<stop  offset="0.1536" style="stop-color:#F8F8F8"/>
				<stop  offset="0.2582" style="stop-color:#B7B7B7"/>
				<stop  offset="0.3613" style="stop-color:#7F7F7F"/>
				<stop  offset="0.4604" style="stop-color:#525252"/>
				<stop  offset="0.5546" style="stop-color:#2E2E2E"/>
				<stop  offset="0.6427" style="stop-color:#151515"/>
				<stop  offset="0.7224" style="stop-color:#050505"/>
				<stop  offset="0.7864" style="stop-color:#000000"/>
			</radialGradient>
			<path fill="url(#SVGID_8_)" d="M655.322,138.165"/>
		</g>
	</g>
	<g>
		<g>
			<g>
				
					<radialGradient id="SVGID_9_" cx="1080.8262" cy="428.873" r="148.7832" gradientTransform="matrix(0.1978 -0.0254 0.0235 0.214 33.182 20.6604)" gradientUnits="userSpaceOnUse">
					<stop  offset="0.1424" style="stop-color:#FFFFFF"/>
					<stop  offset="0.1536" style="stop-color:#F8F8F8"/>
					<stop  offset="0.2582" style="stop-color:#B7B7B7"/>
					<stop  offset="0.3613" style="stop-color:#7F7F7F"/>
					<stop  offset="0.4604" style="stop-color:#525252"/>
					<stop  offset="0.5546" style="stop-color:#2E2E2E"/>
					<stop  offset="0.6427" style="stop-color:#151515"/>
					<stop  offset="0.7224" style="stop-color:#050505"/>
					<stop  offset="0.7864" style="stop-color:#000000"/>
				</radialGradient>
				<path fill="url(#SVGID_9_)" d="M286.515,81.207c1.928,17.583-9.687,33.526-25.943,35.611
					c-16.257,2.086-30.999-10.476-32.927-28.059c-1.928-17.582,9.687-33.525,25.944-35.611
					C269.844,51.063,284.586,63.625,286.515,81.207z"/>
			</g>
			<g>
				<g>
					<g>
						<image overflow="visible" width="36" height="8" xlink:href="17A8EC34.png"  transform="matrix(1 0 0 1 257 82)">
						</image>
					</g>
					<g>
						
							<image overflow="visible" opacity="0.3" width="36" height="12" xlink:href="17A8EC35.png"  transform="matrix(1 0 0 1 250 80)">
						</image>
						
							<image overflow="visible" opacity="0.3" width="39" height="12" xlink:href="17A8EC37.png"  transform="matrix(1 0 0 1 219 80)">
						</image>
					</g>
					<g>
						
							<image overflow="visible" opacity="0.3" width="21" height="22" xlink:href="17A8EC33.png"  transform="matrix(1 0 0 1 256 65)">
						</image>
						
							<image overflow="visible" opacity="0.3" width="21" height="22" xlink:href="17A8EC3B.png"  transform="matrix(1 0 0 1 238 85)">
						</image>
					</g>
					<g>
						
							<image overflow="visible" opacity="0.33" width="18" height="34" xlink:href="17A8EC50.png"  transform="matrix(1 0 0 1 255 85)">
						</image>
						
							<image overflow="visible" opacity="0.35" width="17" height="33" xlink:href="17A8EC53.png"  transform="matrix(1 0 0 1 243 54)">
						</image>
					</g>
				</g>
			</g>
			
				<radialGradient id="SVGID_10_" cx="1299.1543" cy="347.3125" r="0" gradientTransform="matrix(0.2006 0 0 0.217 26.0518 10.8634)" gradientUnits="userSpaceOnUse">
				<stop  offset="0.1424" style="stop-color:#FFFFFF"/>
				<stop  offset="0.1536" style="stop-color:#F8F8F8"/>
				<stop  offset="0.2582" style="stop-color:#B7B7B7"/>
				<stop  offset="0.3613" style="stop-color:#7F7F7F"/>
				<stop  offset="0.4604" style="stop-color:#525252"/>
				<stop  offset="0.5546" style="stop-color:#2E2E2E"/>
				<stop  offset="0.6427" style="stop-color:#151515"/>
				<stop  offset="0.7224" style="stop-color:#050505"/>
				<stop  offset="0.7864" style="stop-color:#000000"/>
			</radialGradient>
			<path fill="url(#SVGID_10_)" d="M286.724,86.232"/>
			
				<radialGradient id="SVGID_11_" cx="1299.1543" cy="347.3125" r="0" gradientTransform="matrix(0.2006 0 0 0.217 26.0518 10.8634)" gradientUnits="userSpaceOnUse">
				<stop  offset="0.1424" style="stop-color:#FFFFFF"/>
				<stop  offset="0.1536" style="stop-color:#F8F8F8"/>
				<stop  offset="0.2582" style="stop-color:#B7B7B7"/>
				<stop  offset="0.3613" style="stop-color:#7F7F7F"/>
				<stop  offset="0.4604" style="stop-color:#525252"/>
				<stop  offset="0.5546" style="stop-color:#2E2E2E"/>
				<stop  offset="0.6427" style="stop-color:#151515"/>
				<stop  offset="0.7224" style="stop-color:#050505"/>
				<stop  offset="0.7864" style="stop-color:#000000"/>
			</radialGradient>
			<path fill="url(#SVGID_11_)" d="M286.724,86.232"/>
			
				<radialGradient id="SVGID_12_" cx="1322.0723" cy="351.6094" r="0" gradientTransform="matrix(0.2006 0 0 0.217 26.0518 10.8634)" gradientUnits="userSpaceOnUse">
				<stop  offset="0.1424" style="stop-color:#FFFFFF"/>
				<stop  offset="0.1536" style="stop-color:#F8F8F8"/>
				<stop  offset="0.2582" style="stop-color:#B7B7B7"/>
				<stop  offset="0.3613" style="stop-color:#7F7F7F"/>
				<stop  offset="0.4604" style="stop-color:#525252"/>
				<stop  offset="0.5546" style="stop-color:#2E2E2E"/>
				<stop  offset="0.6427" style="stop-color:#151515"/>
				<stop  offset="0.7224" style="stop-color:#050505"/>
				<stop  offset="0.7864" style="stop-color:#000000"/>
			</radialGradient>
			<path fill="url(#SVGID_12_)" d="M291.322,87.165"/>
		</g>
	</g>
	<g>
		<g>
			<g>
				
					<radialGradient id="SVGID_13_" cx="4235.2012" cy="1022.834" r="148.7832" gradientTransform="matrix(0.1978 -0.0254 0.0235 0.214 33.182 20.6604)" gradientUnits="userSpaceOnUse">
					<stop  offset="0.1424" style="stop-color:#FFFFFF"/>
					<stop  offset="0.1536" style="stop-color:#F8F8F8"/>
					<stop  offset="0.2582" style="stop-color:#B7B7B7"/>
					<stop  offset="0.3613" style="stop-color:#7F7F7F"/>
					<stop  offset="0.4604" style="stop-color:#525252"/>
					<stop  offset="0.5546" style="stop-color:#2E2E2E"/>
					<stop  offset="0.6427" style="stop-color:#151515"/>
					<stop  offset="0.7224" style="stop-color:#050505"/>
					<stop  offset="0.7864" style="stop-color:#000000"/>
				</radialGradient>
				<path fill="url(#SVGID_13_)" d="M924.515,128.207c1.929,17.583-9.687,33.526-25.943,35.611
					c-16.257,2.086-30.999-10.476-32.927-28.059c-1.929-17.582,9.687-33.525,25.943-35.611
					C907.844,98.063,922.586,110.625,924.515,128.207z"/>
			</g>
			<g>
				<g>
					<g>
						<image overflow="visible" width="36" height="8" xlink:href="17A8EC51.png"  transform="matrix(1 0 0 1 895 129)">
						</image>
					</g>
					<g>
						
							<image overflow="visible" opacity="0.3" width="36" height="12" xlink:href="17A8EC5F.png"  transform="matrix(1 0 0 1 888 127)">
						</image>
						
							<image overflow="visible" opacity="0.3" width="39" height="12" xlink:href="17A8EC52.png"  transform="matrix(1 0 0 1 857 127)">
						</image>
					</g>
					<g>
						
							<image overflow="visible" opacity="0.3" width="21" height="22" xlink:href="17A8EC55.png"  transform="matrix(1 0 0 1 894 112)">
						</image>
						
							<image overflow="visible" opacity="0.3" width="21" height="22" xlink:href="17A8EC56.png"  transform="matrix(1 0 0 1 876 132)">
						</image>
					</g>
					<g>
						
							<image overflow="visible" opacity="0.33" width="18" height="34" xlink:href="17A8EC57.png"  transform="matrix(1 0 0 1 893 132)">
						</image>
						
							<image overflow="visible" opacity="0.35" width="17" height="33" xlink:href="17A8EC6C.png"  transform="matrix(1 0 0 1 881 101)">
						</image>
					</g>
				</g>
			</g>
			
				<radialGradient id="SVGID_14_" cx="4478.8574" cy="563.8984" r="0" gradientTransform="matrix(0.2006 0 0 0.217 26.0518 10.8634)" gradientUnits="userSpaceOnUse">
				<stop  offset="0.1424" style="stop-color:#FFFFFF"/>
				<stop  offset="0.1536" style="stop-color:#F8F8F8"/>
				<stop  offset="0.2582" style="stop-color:#B7B7B7"/>
				<stop  offset="0.3613" style="stop-color:#7F7F7F"/>
				<stop  offset="0.4604" style="stop-color:#525252"/>
				<stop  offset="0.5546" style="stop-color:#2E2E2E"/>
				<stop  offset="0.6427" style="stop-color:#151515"/>
				<stop  offset="0.7224" style="stop-color:#050505"/>
				<stop  offset="0.7864" style="stop-color:#000000"/>
			</radialGradient>
			<path fill="url(#SVGID_14_)" d="M924.724,133.232"/>
			
				<radialGradient id="SVGID_15_" cx="4478.8574" cy="563.8984" r="0" gradientTransform="matrix(0.2006 0 0 0.217 26.0518 10.8634)" gradientUnits="userSpaceOnUse">
				<stop  offset="0.1424" style="stop-color:#FFFFFF"/>
				<stop  offset="0.1536" style="stop-color:#F8F8F8"/>
				<stop  offset="0.2582" style="stop-color:#B7B7B7"/>
				<stop  offset="0.3613" style="stop-color:#7F7F7F"/>
				<stop  offset="0.4604" style="stop-color:#525252"/>
				<stop  offset="0.5546" style="stop-color:#2E2E2E"/>
				<stop  offset="0.6427" style="stop-color:#151515"/>
				<stop  offset="0.7224" style="stop-color:#050505"/>
				<stop  offset="0.7864" style="stop-color:#000000"/>
			</radialGradient>
			<path fill="url(#SVGID_15_)" d="M924.724,133.232"/>
			
				<radialGradient id="SVGID_16_" cx="4501.7754" cy="568.1953" r="0" gradientTransform="matrix(0.2006 0 0 0.217 26.0518 10.8634)" gradientUnits="userSpaceOnUse">
				<stop  offset="0.1424" style="stop-color:#FFFFFF"/>
				<stop  offset="0.1536" style="stop-color:#F8F8F8"/>
				<stop  offset="0.2582" style="stop-color:#B7B7B7"/>
				<stop  offset="0.3613" style="stop-color:#7F7F7F"/>
				<stop  offset="0.4604" style="stop-color:#525252"/>
				<stop  offset="0.5546" style="stop-color:#2E2E2E"/>
				<stop  offset="0.6427" style="stop-color:#151515"/>
				<stop  offset="0.7224" style="stop-color:#050505"/>
				<stop  offset="0.7864" style="stop-color:#000000"/>
			</radialGradient>
			<path fill="url(#SVGID_16_)" d="M929.322,134.165"/>
		</g>
	</g>
	<g>
		<g>
			<g>
				
					<radialGradient id="SVGID_17_" cx="968.2695" cy="-386.0205" r="85.9492" gradientTransform="matrix(0.171 0.1998 -0.171 0.1998 215.514 6.3376)" gradientUnits="userSpaceOnUse">
					<stop  offset="0.0058" style="stop-color:#FFFFFF"/>
					<stop  offset="0.0662" style="stop-color:#DBDBDB"/>
					<stop  offset="0.1639" style="stop-color:#A9A9A9"/>
					<stop  offset="0.2662" style="stop-color:#7B7B7B"/>
					<stop  offset="0.3711" style="stop-color:#555555"/>
					<stop  offset="0.4793" style="stop-color:#363636"/>
					<stop  offset="0.592" style="stop-color:#1E1E1E"/>
					<stop  offset="0.7109" style="stop-color:#0D0D0D"/>
					<stop  offset="0.8404" style="stop-color:#030303"/>
					<stop  offset="1" style="stop-color:#000000"/>
				</radialGradient>
				<path fill="url(#SVGID_17_)" d="M432.439,105.498c8.118-9.484,21.282-9.484,29.4,0c8.119,9.484,8.119,24.861,0,34.345
					c-8.119,9.484-21.281,9.484-29.4,0S424.32,114.982,432.439,105.498z"/>
			</g>
			<g opacity="0.3">
				
					<image overflow="visible" opacity="0.9" width="24" height="15" xlink:href="17A8EC6D.png"  transform="matrix(1 0 0 1 446 111)">
				</image>
				
					<image overflow="visible" opacity="0.9" width="24" height="10" xlink:href="17A8EC77.png"  transform="matrix(1 0 0 1 447 118)">
				</image>
				
					<image overflow="visible" opacity="0.9" width="20" height="19" xlink:href="17A8EC75.png"  transform="matrix(1 0 0 1 446 121)">
				</image>
				
					<image overflow="visible" opacity="0.9" width="13" height="27" xlink:href="17A8EC4B.png"  transform="matrix(1 0 0 1 444 122)">
				</image>
				
					<image overflow="visible" opacity="0.9" width="9" height="29" xlink:href="17A8EC4D.png"  transform="matrix(1 0 0 1 442 122)">
				</image>
				
					<image overflow="visible" opacity="0.9" width="17" height="24" xlink:href="17A8EC4F.png"  transform="matrix(1 0 0 1 432 121)">
				</image>
				
					<image overflow="visible" opacity="0.9" width="23" height="14" xlink:href="17A8EC4A.png"  transform="matrix(1 0 0 1 425 120)">
				</image>
				
					<image overflow="visible" opacity="0.9" width="25" height="10" xlink:href="17A8EC49.png"  transform="matrix(1 0 0 1 423 117)">
				</image>
				
					<image overflow="visible" opacity="0.9" width="20" height="20" xlink:href="17A8EC58.png"  transform="matrix(1 0 0 1 428 105)">
				</image>
				
					<image overflow="visible" opacity="0.9" width="13" height="27" xlink:href="17A8EC59.png"  transform="matrix(1 0 0 1 437 96)">
				</image>
				<image overflow="visible" opacity="0.9" width="9" height="28" xlink:href="17A8EC5A.png"  transform="matrix(1 0 0 1 443 95)">
				</image>
				
					<image overflow="visible" opacity="0.9" width="17" height="24" xlink:href="17A8ECA6.png"  transform="matrix(1 0 0 1 445 100)">
				</image>
				
					<radialGradient id="SVGID_18_" cx="678.5703" cy="-521.4033" r="72.3677" gradientTransform="matrix(0.0934 0.2607 -0.2231 0.1091 267.3972 2.6885)" gradientUnits="userSpaceOnUse">
					<stop  offset="0.0058" style="stop-color:#FFFFFF"/>
					<stop  offset="0.0662" style="stop-color:#DBDBDB"/>
					<stop  offset="0.1639" style="stop-color:#A9A9A9"/>
					<stop  offset="0.2662" style="stop-color:#7B7B7B"/>
					<stop  offset="0.3711" style="stop-color:#555555"/>
					<stop  offset="0.4793" style="stop-color:#363636"/>
					<stop  offset="0.592" style="stop-color:#1E1E1E"/>
					<stop  offset="0.7109" style="stop-color:#0D0D0D"/>
					<stop  offset="0.8404" style="stop-color:#030303"/>
					<stop  offset="1" style="stop-color:#000000"/>
				</radialGradient>
				<path fill="url(#SVGID_18_)" d="M440.361,103.804c8.918-4.361,19.174,0.549,22.908,10.966c3.732,10.418-0.47,22.398-9.388,26.76
					c-8.917,4.361-19.173-0.548-22.906-10.966C427.241,120.146,431.443,108.166,440.361,103.804z"/>
			</g>
			<g opacity="0.3">
				
					<image overflow="visible" opacity="0.9" width="21" height="20" xlink:href="17A8ECA5.png"  transform="matrix(1 0 0 1 446 105)">
				</image>
				
					<image overflow="visible" opacity="0.9" width="24" height="10" xlink:href="17A8ECBA.png"  transform="matrix(1 0 0 1 447 117)">
				</image>
				
					<image overflow="visible" opacity="0.9" width="24" height="14" xlink:href="17A8ECBD.png"  transform="matrix(1 0 0 1 446 120)">
				</image>
				
					<image overflow="visible" opacity="0.9" width="17" height="24" xlink:href="17A8ECBE.png"  transform="matrix(1 0 0 1 445 121)">
				</image>
				
					<image overflow="visible" opacity="0.9" width="9" height="29" xlink:href="17A8ECBC.png"  transform="matrix(1 0 0 1 443 122)">
				</image>
				
					<image overflow="visible" opacity="0.9" width="13" height="27" xlink:href="17A8ECBB.png"  transform="matrix(1 0 0 1 437 122)">
				</image>
				
					<image overflow="visible" opacity="0.9" width="20" height="19" xlink:href="17A8ECA4.png"  transform="matrix(1 0 0 1 428 121)">
				</image>
				
					<image overflow="visible" opacity="0.9" width="25" height="10" xlink:href="17A8ECA7.png"  transform="matrix(1 0 0 1 423 118)">
				</image>
				
					<image overflow="visible" opacity="0.9" width="23" height="15" xlink:href="17A8ECA3.png"  transform="matrix(1 0 0 1 425 111)">
				</image>
				
					<image overflow="visible" opacity="0.9" width="17" height="24" xlink:href="17A8EC81.png"  transform="matrix(1 0 0 1 432 100)">
				</image>
				<image overflow="visible" opacity="0.9" width="9" height="28" xlink:href="17A8EC87.png"  transform="matrix(1 0 0 1 442 95)">
				</image>
				
					<image overflow="visible" opacity="0.9" width="13" height="26" xlink:href="17A8EC80.png"  transform="matrix(1 0 0 1 444 97)">
				</image>
				
					<radialGradient id="SVGID_19_" cx="873.8203" cy="-444.5303" r="72.3706" gradientTransform="matrix(0.1466 0.2248 -0.1924 0.1712 233.5164 2.3706)" gradientUnits="userSpaceOnUse">
					<stop  offset="0.0058" style="stop-color:#FFFFFF"/>
					<stop  offset="0.0662" style="stop-color:#DBDBDB"/>
					<stop  offset="0.1639" style="stop-color:#A9A9A9"/>
					<stop  offset="0.2662" style="stop-color:#7B7B7B"/>
					<stop  offset="0.3711" style="stop-color:#555555"/>
					<stop  offset="0.4793" style="stop-color:#363636"/>
					<stop  offset="0.592" style="stop-color:#1E1E1E"/>
					<stop  offset="0.7109" style="stop-color:#0D0D0D"/>
					<stop  offset="0.8404" style="stop-color:#030303"/>
					<stop  offset="1" style="stop-color:#000000"/>
				</radialGradient>
				<path fill="url(#SVGID_19_)" d="M436.521,106.395c7.69-6.843,18.674-5.108,24.532,3.876c5.858,8.985,4.373,21.815-3.318,28.659
					c-7.691,6.844-18.674,5.107-24.532-3.877C427.344,126.069,428.83,113.238,436.521,106.395z"/>
			</g>
		</g>
		<g>
			<g>
				<g>
					<defs>
						<filter id="Adobe_OpacityMaskFilter" filterUnits="userSpaceOnUse" x="420" y="91" width="54" height="63">
							<feColorMatrix  type="matrix" values="1 0 0 0 0  0 1 0 0 0  0 0 1 0 0  0 0 0 1 0"/>
						</filter>
					</defs>
					<mask maskUnits="userSpaceOnUse" x="420" y="91" width="54" height="63" id="SVGID_20_">
						<g filter="url(#Adobe_OpacityMaskFilter)">
							
								<radialGradient id="SVGID_21_" cx="998.6641" cy="-425.7832" r="231.7583" gradientTransform="matrix(0.1615 0.1887 -0.1615 0.1887 217.23 14.5845)" gradientUnits="userSpaceOnUse">
								<stop  offset="0.131" style="stop-color:#FFFFFF"/>
								<stop  offset="0.6203" style="stop-color:#000000"/>
							</radialGradient>
							<path fill="url(#SVGID_21_)" d="M484.758,166.421c-20.675,24.153-54.196,24.153-74.872,0
								c-20.675-24.153-20.675-63.313,0-87.466c20.676-24.153,54.197-24.153,74.872,0
								C505.434,103.108,505.434,142.269,484.758,166.421z"/>
						</g>
					</mask>
					<g mask="url(#SVGID_20_)">
						<g opacity="0.9">
							<image overflow="visible" width="29" height="34" xlink:href="17A8EC83.png"  transform="matrix(1 0 0 1 445 91)">
							</image>
						</g>
						<g opacity="0.9">
							<image overflow="visible" width="29" height="34" xlink:href="17A8EC8F.png"  transform="matrix(1 0 0 1 445 120)">
							</image>
						</g>
						<g opacity="0.9">
							<image overflow="visible" width="29" height="34" xlink:href="17A8EC82.png"  transform="matrix(1 0 0 1 420 120)">
							</image>
						</g>
						<g opacity="0.9">
							<image overflow="visible" width="29" height="34" xlink:href="17A8EC85.png"  transform="matrix(1 0 0 1 420 91)">
							</image>
						</g>
					</g>
					
						<radialGradient id="SVGID_22_" cx="998.1035" cy="-425.2637" r="120.5415" gradientTransform="matrix(0.1615 0.1887 -0.1615 0.1887 217.23 14.5845)" gradientUnits="userSpaceOnUse">
						<stop  offset="0.1063" style="stop-color:#FFFFFF"/>
						<stop  offset="0.216" style="stop-color:#C4C4C4"/>
						<stop  offset="0.3262" style="stop-color:#919191"/>
						<stop  offset="0.4385" style="stop-color:#646464"/>
						<stop  offset="0.5508" style="stop-color:#404040"/>
						<stop  offset="0.663" style="stop-color:#242424"/>
						<stop  offset="0.7752" style="stop-color:#101010"/>
						<stop  offset="0.8874" style="stop-color:#040404"/>
						<stop  offset="1" style="stop-color:#000000"/>
					</radialGradient>
					<path fill="url(#SVGID_22_)" d="M427.676,99.934c10.753-12.563,28.188-12.563,38.942,0s10.754,32.931,0,45.493
						c-10.754,12.563-28.189,12.563-38.942,0C416.921,132.864,416.921,112.496,427.676,99.934z"/>
				</g>
			</g>
			<g>
				<g>
					<g>
						
							<image overflow="visible" opacity="0.9" width="26" height="11" xlink:href="17A8EC86.png"  transform="matrix(1 0 0 1 447 117)">
						</image>
						
							<image overflow="visible" opacity="0.9" width="9" height="31" xlink:href="17A8EC84.png"  transform="matrix(1 0 0 1 443 122)">
						</image>
						
							<image overflow="visible" opacity="0.9" width="27" height="11" xlink:href="17A8ECFC.png"  transform="matrix(1 0 0 1 421 117)">
						</image>
						
							<image overflow="visible" opacity="0.9" width="9" height="31" xlink:href="17A8ECE4.png"  transform="matrix(1 0 0 1 443 92)">
						</image>
					</g>
					
						<radialGradient id="SVGID_23_" cx="353.4326" cy="-538.1992" r="65.5435" gradientTransform="matrix(0 0.2825 -0.2419 0 316.9187 22.7444)" gradientUnits="userSpaceOnUse">
						<stop  offset="0.1063" style="stop-color:#FFFFFF"/>
						<stop  offset="0.216" style="stop-color:#C4C4C4"/>
						<stop  offset="0.3262" style="stop-color:#919191"/>
						<stop  offset="0.4385" style="stop-color:#646464"/>
						<stop  offset="0.5508" style="stop-color:#404040"/>
						<stop  offset="0.663" style="stop-color:#242424"/>
						<stop  offset="0.7752" style="stop-color:#101010"/>
						<stop  offset="0.8874" style="stop-color:#040404"/>
						<stop  offset="1" style="stop-color:#000000"/>
					</radialGradient>
					<ellipse fill="url(#SVGID_23_)" cx="447.091" cy="122.606" rx="15.853" ry="18.52"/>
				</g>
			</g>
		</g>
	</g>
	<g>
		<g>
			<g>
				
					<radialGradient id="SVGID_24_" cx="1713.6777" cy="-1381.668" r="85.9507" gradientTransform="matrix(0.171 0.1998 -0.171 0.1998 215.514 6.3376)" gradientUnits="userSpaceOnUse">
					<stop  offset="0.0058" style="stop-color:#FFFFFF"/>
					<stop  offset="0.0662" style="stop-color:#DBDBDB"/>
					<stop  offset="0.1639" style="stop-color:#A9A9A9"/>
					<stop  offset="0.2662" style="stop-color:#7B7B7B"/>
					<stop  offset="0.3711" style="stop-color:#555555"/>
					<stop  offset="0.4793" style="stop-color:#363636"/>
					<stop  offset="0.592" style="stop-color:#1E1E1E"/>
					<stop  offset="0.7109" style="stop-color:#0D0D0D"/>
					<stop  offset="0.8404" style="stop-color:#030303"/>
					<stop  offset="1" style="stop-color:#000000"/>
				</radialGradient>
				<path fill="url(#SVGID_24_)" d="M730.214,55.501c8.119-9.484,21.282-9.484,29.4,0c8.119,9.484,8.119,24.861,0,34.345
					s-21.281,9.484-29.4,0C722.096,80.362,722.096,64.985,730.214,55.501z"/>
			</g>
			<g opacity="0.3">
				
					<image overflow="visible" opacity="0.9" width="23" height="15" xlink:href="17A8ECE7.png"  transform="matrix(1 0 0 1 744 61)">
				</image>
				
					<image overflow="visible" opacity="0.9" width="25" height="10" xlink:href="17A8ECE5.png"  transform="matrix(1 0 0 1 744 68)">
				</image>
				
					<image overflow="visible" opacity="0.9" width="20" height="19" xlink:href="17A8EC9B.png"  transform="matrix(1 0 0 1 744 71)">
				</image>
				
					<image overflow="visible" opacity="0.9" width="13" height="27" xlink:href="17A8EC9C.png"  transform="matrix(1 0 0 1 742 72)">
				</image>
				<image overflow="visible" opacity="0.9" width="9" height="29" xlink:href="17A8EC9F.png"  transform="matrix(1 0 0 1 740 72)">
				</image>
				
					<image overflow="visible" opacity="0.9" width="17" height="24" xlink:href="17A8EC9D.png"  transform="matrix(1 0 0 1 730 71)">
				</image>
				
					<image overflow="visible" opacity="0.9" width="24" height="14" xlink:href="17A8EC9A.png"  transform="matrix(1 0 0 1 722 70)">
				</image>
				
					<image overflow="visible" opacity="0.9" width="24" height="10" xlink:href="17A8ECA8.png"  transform="matrix(1 0 0 1 721 67)">
				</image>
				
					<image overflow="visible" opacity="0.9" width="21" height="20" xlink:href="17A8ECA9.png"  transform="matrix(1 0 0 1 725 55)">
				</image>
				
					<image overflow="visible" opacity="0.9" width="13" height="27" xlink:href="17A8ECB5.png"  transform="matrix(1 0 0 1 735 46)">
				</image>
				<image overflow="visible" opacity="0.9" width="9" height="28" xlink:href="17A8ECB9.png"  transform="matrix(1 0 0 1 741 45)">
				</image>
				
					<image overflow="visible" opacity="0.9" width="17" height="24" xlink:href="17A8ECB7.png"  transform="matrix(1 0 0 1 743 50)">
				</image>
				
					<radialGradient id="SVGID_25_" cx="990.7559" cy="-1725.2715" r="72.3672" gradientTransform="matrix(0.0934 0.2607 -0.2231 0.1091 267.3972 2.6885)" gradientUnits="userSpaceOnUse">
					<stop  offset="0.0058" style="stop-color:#FFFFFF"/>
					<stop  offset="0.0662" style="stop-color:#DBDBDB"/>
					<stop  offset="0.1639" style="stop-color:#A9A9A9"/>
					<stop  offset="0.2662" style="stop-color:#7B7B7B"/>
					<stop  offset="0.3711" style="stop-color:#555555"/>
					<stop  offset="0.4793" style="stop-color:#363636"/>
					<stop  offset="0.592" style="stop-color:#1E1E1E"/>
					<stop  offset="0.7109" style="stop-color:#0D0D0D"/>
					<stop  offset="0.8404" style="stop-color:#030303"/>
					<stop  offset="1" style="stop-color:#000000"/>
				</radialGradient>
				<path fill="url(#SVGID_25_)" d="M738.136,53.807c8.918-4.361,19.175,0.549,22.908,10.966c3.732,10.418-0.471,22.398-9.389,26.76
					c-8.917,4.361-19.172-0.548-22.906-10.966C725.017,70.149,729.219,58.168,738.136,53.807z"/>
			</g>
			<g opacity="0.3">
				
					<image overflow="visible" opacity="0.9" width="20" height="20" xlink:href="17A8ED49.png"  transform="matrix(1 0 0 1 744 55)">
				</image>
				
					<image overflow="visible" opacity="0.9" width="25" height="10" xlink:href="17A8ED4B.png"  transform="matrix(1 0 0 1 744 67)">
				</image>
				
					<image overflow="visible" opacity="0.9" width="23" height="14" xlink:href="17A8ED4E.png"  transform="matrix(1 0 0 1 744 70)">
				</image>
				
					<image overflow="visible" opacity="0.9" width="17" height="24" xlink:href="17A8ED4F.png"  transform="matrix(1 0 0 1 743 71)">
				</image>
				<image overflow="visible" opacity="0.9" width="9" height="29" xlink:href="17A8ED4A.png"  transform="matrix(1 0 0 1 741 72)">
				</image>
				
					<image overflow="visible" opacity="0.9" width="13" height="27" xlink:href="17A8ED55.png"  transform="matrix(1 0 0 1 735 72)">
				</image>
				
					<image overflow="visible" opacity="0.9" width="21" height="19" xlink:href="17A8ED56.png"  transform="matrix(1 0 0 1 725 71)">
				</image>
				
					<image overflow="visible" opacity="0.9" width="24" height="10" xlink:href="17A8ED72.png"  transform="matrix(1 0 0 1 721 68)">
				</image>
				
					<image overflow="visible" opacity="0.9" width="24" height="15" xlink:href="17A8ED71.png"  transform="matrix(1 0 0 1 722 61)">
				</image>
				
					<image overflow="visible" opacity="0.9" width="17" height="24" xlink:href="17A8ED76.png"  transform="matrix(1 0 0 1 730 50)">
				</image>
				<image overflow="visible" opacity="0.9" width="9" height="28" xlink:href="17A8ED70.png"  transform="matrix(1 0 0 1 740 45)">
				</image>
				
					<image overflow="visible" opacity="0.9" width="13" height="26" xlink:href="17A8ED73.png"  transform="matrix(1 0 0 1 742 47)">
				</image>
				
					<radialGradient id="SVGID_26_" cx="1479.1016" cy="-1531.0586" r="72.3711" gradientTransform="matrix(0.1466 0.2248 -0.1924 0.1712 233.5164 2.3706)" gradientUnits="userSpaceOnUse">
					<stop  offset="0.0058" style="stop-color:#FFFFFF"/>
					<stop  offset="0.0662" style="stop-color:#DBDBDB"/>
					<stop  offset="0.1639" style="stop-color:#A9A9A9"/>
					<stop  offset="0.2662" style="stop-color:#7B7B7B"/>
					<stop  offset="0.3711" style="stop-color:#555555"/>
					<stop  offset="0.4793" style="stop-color:#363636"/>
					<stop  offset="0.592" style="stop-color:#1E1E1E"/>
					<stop  offset="0.7109" style="stop-color:#0D0D0D"/>
					<stop  offset="0.8404" style="stop-color:#030303"/>
					<stop  offset="1" style="stop-color:#000000"/>
				</radialGradient>
				<path fill="url(#SVGID_26_)" d="M734.296,56.398c7.691-6.843,18.675-5.108,24.532,3.876c5.858,8.985,4.372,21.815-3.318,28.659
					c-7.69,6.844-18.675,5.107-24.532-3.877C725.12,76.072,726.605,63.241,734.296,56.398z"/>
			</g>
		</g>
		<g>
			<g>
				<g>
					<defs>
						<filter id="Adobe_OpacityMaskFilter_1_" filterUnits="userSpaceOnUse" x="718" y="41" width="54" height="63">
							<feColorMatrix  type="matrix" values="1 0 0 0 0  0 1 0 0 0  0 0 1 0 0  0 0 0 1 0"/>
						</filter>
					</defs>
					<mask maskUnits="userSpaceOnUse" x="718" y="41" width="54" height="63" id="SVGID_27_">
						<g filter="url(#Adobe_OpacityMaskFilter_1_)">
							
								<radialGradient id="SVGID_28_" cx="1787.918" cy="-1479.9893" r="231.7578" gradientTransform="matrix(0.1615 0.1887 -0.1615 0.1887 217.23 14.5845)" gradientUnits="userSpaceOnUse">
								<stop  offset="0.131" style="stop-color:#FFFFFF"/>
								<stop  offset="0.6203" style="stop-color:#000000"/>
							</radialGradient>
							<path fill="url(#SVGID_28_)" d="M782.533,116.424c-20.675,24.153-54.196,24.153-74.872,0s-20.676-63.313,0-87.466
								s54.197-24.153,74.872,0S803.208,92.271,782.533,116.424z"/>
						</g>
					</mask>
					<g mask="url(#SVGID_27_)">
						<g opacity="0.9">
							<image overflow="visible" width="29" height="34" xlink:href="17A8ED7F.png"  transform="matrix(1 0 0 1 743 41)">
							</image>
						</g>
						<g opacity="0.9">
							<image overflow="visible" width="29" height="34" xlink:href="17A8ED7E.png"  transform="matrix(1 0 0 1 743 70)">
							</image>
						</g>
						<g opacity="0.9">
							<image overflow="visible" width="29" height="34" xlink:href="17A8ED75.png"  transform="matrix(1 0 0 1 718 70)">
							</image>
						</g>
						<g opacity="0.9">
							<image overflow="visible" width="29" height="34" xlink:href="17A8ED77.png"  transform="matrix(1 0 0 1 718 41)">
							</image>
						</g>
					</g>
					
						<radialGradient id="SVGID_29_" cx="1787.3555" cy="-1479.4697" r="120.543" gradientTransform="matrix(0.1615 0.1887 -0.1615 0.1887 217.23 14.5845)" gradientUnits="userSpaceOnUse">
						<stop  offset="0.1063" style="stop-color:#FFFFFF"/>
						<stop  offset="0.216" style="stop-color:#C4C4C4"/>
						<stop  offset="0.3262" style="stop-color:#919191"/>
						<stop  offset="0.4385" style="stop-color:#646464"/>
						<stop  offset="0.5508" style="stop-color:#404040"/>
						<stop  offset="0.663" style="stop-color:#242424"/>
						<stop  offset="0.7752" style="stop-color:#101010"/>
						<stop  offset="0.8874" style="stop-color:#040404"/>
						<stop  offset="1" style="stop-color:#000000"/>
					</radialGradient>
					<path fill="url(#SVGID_29_)" d="M725.451,49.937c10.753-12.563,28.188-12.563,38.942,0s10.754,32.931,0,45.493
						c-10.754,12.563-28.189,12.563-38.942,0C714.696,82.867,714.696,62.499,725.451,49.937z"/>
				</g>
			</g>
			<g>
				<g>
					<g>
						
							<image overflow="visible" opacity="0.9" width="27" height="11" xlink:href="17A8ED74.png"  transform="matrix(1 0 0 1 744 67)">
						</image>
						
							<image overflow="visible" opacity="0.9" width="9" height="31" xlink:href="17A8ED1D.png"  transform="matrix(1 0 0 1 740 72)">
						</image>
						
							<image overflow="visible" opacity="0.9" width="26" height="11" xlink:href="17A8ED13.png"  transform="matrix(1 0 0 1 719 67)">
						</image>
						
							<image overflow="visible" opacity="0.9" width="9" height="31" xlink:href="17A8ED15.png"  transform="matrix(1 0 0 1 740 42)">
						</image>
					</g>
					
						<radialGradient id="SVGID_30_" cx="176.4834" cy="-1769.3594" r="65.5435" gradientTransform="matrix(0 0.2825 -0.2419 0 316.9187 22.7444)" gradientUnits="userSpaceOnUse">
						<stop  offset="0.1063" style="stop-color:#FFFFFF"/>
						<stop  offset="0.216" style="stop-color:#C4C4C4"/>
						<stop  offset="0.3262" style="stop-color:#919191"/>
						<stop  offset="0.4385" style="stop-color:#646464"/>
						<stop  offset="0.5508" style="stop-color:#404040"/>
						<stop  offset="0.663" style="stop-color:#242424"/>
						<stop  offset="0.7752" style="stop-color:#101010"/>
						<stop  offset="0.8874" style="stop-color:#040404"/>
						<stop  offset="1" style="stop-color:#000000"/>
					</radialGradient>
					<ellipse fill="url(#SVGID_30_)" cx="744.866" cy="72.609" rx="15.853" ry="18.52"/>
				</g>
			</g>
		</g>
	</g>
</g>
</svg>
